<svg width="58" height="58" viewBox="0 0 58 58" fill="none" xmlns="http://www.w3.org/2000/svg">
<rect width="58" height="58" rx="29" fill="#C8102E"/>
<path d="M7.10292 18.6768C6.44887 18.7814 5.86317 19.1416 5.47468 19.6781C5.08619 20.2146 4.92673 20.8834 5.03138 21.5375C5.13603 22.1915 5.49621 22.7772 6.0327 23.1657C6.56919 23.5542 7.23803 23.7137 7.89209 23.609H15.2905L15.7344 24.8421L17.7566 31.0074L19.7788 37.1727C19.9761 37.8139 20.8146 38.4058 21.4558 38.4058H38.7187C39.4092 38.4058 40.1984 37.8139 40.3956 37.1727L44.3908 24.8421C44.5881 24.2009 44.2921 23.609 43.6016 23.609H21.7024L19.8281 20.0578C19.6285 19.6502 19.3203 19.3056 18.9374 19.0619C18.5545 18.8182 18.1117 18.685 17.6579 18.6768L7.79344 18.6768C7.64577 18.6634 7.4972 18.6634 7.34954 18.6768C7.25098 18.6708 7.15216 18.6708 7.0536 18.6768L7.10292 18.6768ZM22.6888 43.338C21.3078 43.338 20.2227 44.4231 20.2227 45.8042C20.2227 47.1852 21.3078 48.2703 22.6888 48.2703C24.0699 48.2703 25.155 47.1852 25.155 45.8042C25.155 44.4231 24.0699 43.338 22.6888 43.338ZM37.4856 43.338C36.1046 43.338 35.0195 44.4231 35.0195 45.8042C35.0195 47.1852 36.1046 48.2703 37.4856 48.2703C38.8666 48.2703 39.9517 47.1852 39.9517 45.8042C39.9517 44.4231 38.8666 43.338 37.4856 43.338Z" fill="white"/>
<rect x="37.2619" y="9.5" width="15.5714" height="15.5714" rx="7.78571" fill="white" stroke="#C8102E"/>
<path d="M46.8857 17.0454V18.0214H45.4937V19.3814H44.4617V18.0214H43.0777V17.0454H44.4617V15.6854H45.4937V17.0454H46.8857Z" fill="#C8102E"/>
</svg>
