<svg width="29" height="22" viewBox="0 0 29 22" fill="none" xmlns="http://www.w3.org/2000/svg">
<path d="M1.52281 0.00724726C1.04918 0.0830277 0.625054 0.343852 0.343733 0.732343C0.0624124 1.12083 -0.0530588 1.60517 0.0227216 2.07879C0.0985021 2.55242 0.359327 2.97655 0.747817 3.25787C1.13631 3.53919 1.62064 3.65466 2.09427 3.57888H7.45172L7.77316 4.47179L9.23753 8.93633L10.7019 13.4009C10.8448 13.8652 11.4519 14.2938 11.9163 14.2938H24.417C24.917 14.2938 25.4885 13.8652 25.6313 13.4009L28.5243 4.47179C28.6672 4.00748 28.4529 3.57888 27.9529 3.57888H12.0948L10.7376 1.0073C10.5931 0.712142 10.3699 0.462597 10.0926 0.286147C9.8153 0.109698 9.49471 0.0131887 9.1661 0.00724726L2.02284 0.00724726C1.9159 -0.00241575 1.80832 -0.00241575 1.70139 0.00724726C1.63002 0.00295744 1.55846 0.00295744 1.48709 0.00724726L1.52281 0.00724726ZM12.8092 17.8654C11.8091 17.8654 11.0233 18.6512 11.0233 19.6512C11.0233 20.6513 11.8091 21.437 12.8092 21.437C13.8092 21.437 14.595 20.6513 14.595 19.6512C14.595 18.6512 13.8092 17.8654 12.8092 17.8654ZM23.5241 17.8654C22.524 17.8654 21.7382 18.6512 21.7382 19.6512C21.7382 20.6513 22.524 21.437 23.5241 21.437C24.5241 21.437 25.3099 20.6513 25.3099 19.6512C25.3099 18.6512 24.5241 17.8654 23.5241 17.8654Z" fill="white"/>
</svg>
